<svg enable-background="new 0 0 23 54" height="54" viewBox="0 0 23 54" width="23" xmlns="http://www.w3.org/2000/svg"><path d="m0 0h23v54h-23z" fill="none"/><path d="m22 23.1593v-2.2437c0-1.4112-.7576-2.6357-1.881-3.3193.0014-.0052.0041-.0155.0041-.0155-1.3412-.6754-2.1356-1.7747-2.2465-2.978l-.437-3.7858c-.1362-1.0386-.3065-1.1919-1.9071-1.5325 0 0-2.4008-.3121-4.5491-.3121s-4.5491.3121-4.5491.3121c-1.6006.3406-1.7709.4939-1.9071 1.5325l-.437 3.7858c-.111 1.2032-.872 2.3026-2.2132 2.978 0 0 .0022.0104.0034.0159-1.1231.6836-1.8804 1.9079-1.8804 3.3189v17.0178c0 1.433.7823 2.6718 1.9348 3.3484-.001.0059-.0025.0153-.0025.0153 1.3412.6754 2.0469 1.8691 2.1579 3.0724l.437 3.7857c.1362 1.0387.3065 1.192 1.9071 1.5325 0 0 2.4008.3122 4.5491.3122s4.5491-.3122 4.5491-.3122c1.6006-.3405 1.7709-.4938 1.9071-1.5325l.437-3.7857c.1109-1.2033.9053-2.4084 2.2465-3.0838 0 0-.0037-.0116-.0093-.0303 1.1263-.6828 1.8862-1.9087 1.8862-3.322v-10.9641h1v-3.81zm-1 3.81v10.9641c0 1.1972-.7303 2.2269-1.7688 2.6675-.3467.147-.7276.2286-1.1273.2286h-14.2078c-.3997 0-.7806-.0815-1.1273-.2286-1.0385-.4406-1.7688-1.4703-1.7688-2.6675v-17.0178c0-1.105.6292-2.056 1.5416-2.5441.4061-.2172.8627-.3521 1.3546-.3521h14.2078c.4919 0 .9484.1348 1.3545.3521.9123.4881 1.5415 1.439 1.5415 2.5441v2.2437zm-4.6237 21.4548c-.1831.0973-.7625.2239-1.011.2769-.3128.039-2.4708.299-4.3819.299-1.9113 0-4.0693-.26-4.382-.299-.2485-.053-.8279-.1796-1.011-.2769-.0161-.0513-.0403-.1592-.0698-.3834l-.4346-3.7628c-.0834-.9052-.4366-1.7422-.9829-2.4484h13.8075c-.5734.7151-.947 1.5527-1.0273 2.4255l-.4351 3.7704c-.0311.2363-.0557.3469-.0719.3987zm-10.7858-37.8758c.1832-.0973.7628-.2239 1.0111-.2769.3126-.039 2.467-.299 4.3818-.299 1.9111 0 4.0691.2599 4.382.299.2485.053.8279.1796 1.011.2769.0161.0512.0403.1592.0698.3834l.4346 3.7629c.0789.8558.4264 1.6445.9746 2.3249h-13.7261c.5362-.6749.8765-1.457.9543-2.302l.4351-3.7704c.031-.2363.0556-.347.0718-.3988z" fill="#1d1d1f"/></svg>